<?xml version="1.0" encoding="UTF-8"?>
<svg width="80px" height="80px" viewBox="0 0 80 80" version="1.1" xmlns="http://www.w3.org/2000/svg" xmlns:xlink="http://www.w3.org/1999/xlink">
    <title>Icon SVG toolkit</title>
    <defs>
        <linearGradient x1="50%" y1="0%" x2="50%" y2="100%" id="linearGradient-1">
            <stop stop-color="#FFFFFF" stop-opacity="0.5" offset="0%"></stop>
            <stop stop-color="#000000" stop-opacity="0.5" offset="100%"></stop>
        </linearGradient>
        <rect id="path-2" x="0" y="0" width="80" height="80" rx="8"></rect>
    </defs>
    <g id="Page-1" stroke="none" stroke-width="1" fill="none" fill-rule="evenodd">
        <g id="Icon-SVG-toolkit">
            <g id="Rectangle">
                <use fill="#FFFFFF" xlink:href="#path-2"></use>
                <use fill="url(#linearGradient-1)" xlink:href="#path-2"></use>
            </g>
            <g id="graphic" opacity="0.146135603" transform="translate(10, 21)" fill="#1A1919" fill-rule="nonzero">
                <path d="M57.6849475,25.2077013 C57.6849475,25.2077013 60,25.2077013 60,22.8926488 L60,12.6032672 L60,2.31621937 C60,2.31621937 60,0 57.6849475,0 L49.8156359,0 C49.8156359,0 47.5005834,0 47.5005834,2.31621937 L47.5005834,10.2882147 C47.5005834,10.2882147 47.5005834,12.6032672 45.1843641,12.6032672 L37.3150525,12.6032672 C37.3150525,12.6032672 35,12.6032672 35,14.9194866 L35,25.2077013 L35,35.495916 C35,35.495916 35,37.8109685 37.3150525,37.8109685 L45.1843641,37.8109685 C45.1843641,37.8109685 47.5005834,37.8109685 47.5005834,35.495916 L47.5005834,27.5227538 C47.5005834,27.5227538 47.5005834,25.2077013 49.8156359,25.2077013 L57.6849475,25.2077013 Z" id="t"></path>
                <g id="v" transform="translate(1, 6)">
                    <path d="M19.441,21.603 C19.441,21.603 21.425,21.603 21.425,23.587 L21.425,30.42 C21.425,30.42 21.425,32.404 19.441,32.404 L10.713,32.404 L1.984,32.404 C1.984,32.404 0,32.404 0,30.42 L0,21.655 L0,21.603 L0,1.985 C0,1.985 0,0 1.984,0 L8.728,0 C8.728,0 10.713,0 10.713,1.985 L10.713,19.619 C10.713,19.619 10.713,21.603 12.697,21.603 L19.441,21.603 Z"></path>
                </g>
            </g>
            <path d="M63.0515625,63.721875 C58.9820313,63.721875 56.1189453,62.5365234 54.4623047,60.1658203 C52.8056641,57.7951172 51.9773438,54.7203125 51.9773438,50.9414062 L51.9773438,32.2875 L46.6429688,32.2875 L46.6429688,26.7210938 L52.3429688,26.3601563 L53.25,14.7246094 L59.4527344,14.7246094 L59.4527344,26.3601563 L69.0703125,26.3601563 L69.0703125,32.2875 L59.4527344,32.2875 L59.4527344,50.9988281 C59.4527344,53.1769531 59.8730469,54.8439453 60.7136719,55.9998047 C61.5542969,57.1556641 62.9300781,57.7335937 64.8410156,57.7335937 C65.5011719,57.7335937 66.165625,57.6763672 66.834375,57.5619141 C67.503125,57.4474609 68.1660156,57.2261719 68.8230469,56.8980469 L70.2703125,62.1328125 C69.3203125,62.5921875 68.2238281,62.971875 66.9808594,63.271875 C65.7378906,63.571875 64.428125,63.721875 63.0515625,63.721875 Z" id="Path" fill="#000000" fill-rule="nonzero"></path>
            <path d="M18.2463125,64 L2.864625,14.2093125 L10.915875,14.2093125 L18.124,40.1680625 C18.6591667,42.0989375 19.1688021,43.9449063 19.6529062,45.7059688 C20.1370104,47.4670313 20.62725,49.2154271 21.123625,50.9511563 C21.62,52.6868854 22.1484375,54.5197917 22.7089375,56.449875 L23.0129375,56.449875 C23.5734375,54.5197917 24.0892083,52.6868854 24.56025,50.9511563 C25.0312917,49.2154271 25.515,47.4670313 26.011375,45.7059688 C26.50775,43.9449063 27.0369792,42.0989375 27.5990625,40.1680625 L35.340375,14.2093125 L43.0911875,14.2093125 L27.179875,64 L18.2463125,64 Z" id="Path" fill="#000000" fill-rule="nonzero"></path>
        </g>
    </g>
</svg>